HIERARCHY
ROOT hip
{
  OFFSET 0 0 0
  CHANNELS 6 Xposition Yposition Zposition Zrotation Yrotation Xrotation
  JOINT abdomen
  {
    OFFSET 0 20.6881 -0.73152
    CHANNELS 3 Zrotation Xrotation Yrotation
    JOINT chest
    {
      OFFSET 0 11.7043 -0.48768
      CHANNELS 3 Zrotation Xrotation Yrotation
      JOINT neck
      {
        OFFSET 0 22.1894 -2.19456
        CHANNELS 3 Zrotation Xrotation Yrotation
        JOINT head
        {
          OFFSET -0.24384 7.07133 1.2192
          CHANNELS 3 Zrotation Xrotation Yrotation
          JOINT leftEye
          {
            OFFSET 4.14528 8.04674 8.04672
            CHANNELS 3 Zrotation Xrotation Yrotation
            End Site
            {
              OFFSET 1 0 0
            }
          }
          JOINT rightEye
          {
            OFFSET -3.6576 8.04674 8.04672
            CHANNELS 3 Zrotation Xrotation Yrotation
            End Site
            {
              OFFSET 1 0 0
            }
          }
        }
      }
      JOINT rCollar
      {
        OFFSET -2.68224 19.2634 -4.8768
        CHANNELS 3 Zrotation Xrotation Yrotation
        JOINT rShldr
        {
          OFFSET -8.77824 -1.95073 1.46304
          CHANNELS 3 Zrotation Xrotation Yrotation
          JOINT rForeArm
          {
            OFFSET -28.1742 -1.7115 0.48768
            CHANNELS 3 Zrotation Xrotation Yrotation
            JOINT rHand
            {
              OFFSET -22.5879 0.773209 7.07136
              CHANNELS 3 Zrotation Xrotation Yrotation
              JOINT rThumb1
              {
                OFFSET -1.2192 -0.487915 3.41376
                CHANNELS 3 Zrotation Xrotation Yrotation
                JOINT rThumb2
                {
                  OFFSET -3.37035 -0.52449 3.41376
                  CHANNELS 3 Zrotation Xrotation Yrotation
                  End Site
                  {
                    OFFSET -1.78271 -1.18214 1.43049
                  }
                }
              }
              JOINT rIndex1
              {
                OFFSET -7.75947 0.938293 5.60832
                CHANNELS 3 Zrotation Xrotation Yrotation
                JOINT rIndex2
                {
                  OFFSET -2.54057 -0.884171 1.56538
                  CHANNELS 3 Zrotation Xrotation Yrotation
                  End Site
                  {
                    OFFSET -1.62519 -0.234802 1.16502
                  }
                }
              }
              JOINT rMid1
              {
                OFFSET -8.24714 1.18213 3.41376
                CHANNELS 3 Zrotation Xrotation Yrotation
                JOINT rMid2
                {
                  OFFSET -3.10165 -0.590103 1.0647
                  CHANNELS 3 Zrotation Xrotation Yrotation
                  End Site
                  {
                    OFFSET -2.48547 -0.328903 0.83742
                  }
                }
              }
              JOINT rRing1
              {
                OFFSET -8.82822 0.546677 1.51678
                CHANNELS 3 Zrotation Xrotation Yrotation
                JOINT rRing2
                {
                  OFFSET -2.60934 -0.819778 -0.0198488
                  CHANNELS 3 Zrotation Xrotation Yrotation
                  End Site
                  {
                    OFFSET -2.33842 -0.294052 0.168128
                  }
                }
              }
              JOINT rPinky1
              {
                OFFSET -8.27202 -0.0477905 -0.4584
                CHANNELS 3 Zrotation Xrotation Yrotation
                JOINT rPinky2
                {
                  OFFSET -1.82734 -0.647385 -0.700984
                  CHANNELS 3 Zrotation Xrotation Yrotation
                  End Site
                  {
                    OFFSET -1.69225 -0.51767 -0.607171
                  }
                }
              }
            }
          }
        }
      }
      JOINT lCollar
      {
        OFFSET 2.68224 19.2634 -4.8768
        CHANNELS 3 Zrotation Xrotation Yrotation
        JOINT lShldr
        {
          OFFSET 8.77824 -1.95073 1.46304
          CHANNELS 3 Zrotation Xrotation Yrotation
          JOINT lForeArm
          {
            OFFSET 28.1742 -1.7115 0.48768
            CHANNELS 3 Zrotation Xrotation Yrotation
            JOINT lHand
            {
              OFFSET 22.5879 0.773209 7.07136
              CHANNELS 3 Zrotation Xrotation Yrotation
              JOINT lThumb1
              {
                OFFSET 1.2192 -0.487915 3.41376
                CHANNELS 3 Zrotation Xrotation Yrotation
                JOINT lThumb2
                {
                  OFFSET 3.37035 -0.52449 3.41376
                  CHANNELS 3 Zrotation Xrotation Yrotation
                  End Site
                  {
                    OFFSET 1.78271 -1.18214 1.43049
                  }
                }
              }
              JOINT lIndex1
              {
                OFFSET 7.75947 0.938293 5.60832
                CHANNELS 3 Zrotation Xrotation Yrotation
                JOINT lIndex2
                {
                  OFFSET 2.54057 -0.884171 1.56538
                  CHANNELS 3 Zrotation Xrotation Yrotation
                  End Site
                  {
                    OFFSET 1.62519 -0.234802 1.16502
                  }
                }
              }
              JOINT lMid1
              {
                OFFSET 8.24714 1.18213 3.41376
                CHANNELS 3 Zrotation Xrotation Yrotation
                JOINT lMid2
                {
                  OFFSET 3.10165 -0.590103 1.0647
                  CHANNELS 3 Zrotation Xrotation Yrotation
                  End Site
                  {
                    OFFSET 2.48547 -0.328903 0.83742
                  }
                }
              }
              JOINT lRing1
              {
                OFFSET 8.82822 0.546677 1.51678
                CHANNELS 3 Zrotation Xrotation Yrotation
                JOINT lRing2
                {
                  OFFSET 2.60934 -0.819778 -0.0198488
                  CHANNELS 3 Zrotation Xrotation Yrotation
                  End Site
                  {
                    OFFSET 2.33842 -0.294052 0.168128
                  }
                }
              }
              JOINT lPinky1
              {
                OFFSET 8.27202 -0.0477905 -0.4584
                CHANNELS 3 Zrotation Xrotation Yrotation
                JOINT lPinky2
                {
                  OFFSET 1.82734 -0.647385 -0.700984
                  CHANNELS 3 Zrotation Xrotation Yrotation
                  End Site
                  {
                    OFFSET 1.69225 -0.51767 -0.607171
                  }
                }
              }
            }
          }
        }
      }
    }
  }
  JOINT rButtock
  {
    OFFSET -8.77824 4.35084 1.2192
    CHANNELS 3 Zrotation Xrotation Yrotation
    JOINT rThigh
    {
      OFFSET 0 -1.70687 -2.19456
      CHANNELS 3 Zrotation Xrotation Yrotation
      JOINT rShin
      {
        OFFSET 0 -36.8199 0.73152
        CHANNELS 3 Zrotation Xrotation Yrotation
        JOINT rFoot
        {
          OFFSET 0.73152 -45.1104 -5.12064
          CHANNELS 3 Zrotation Xrotation Yrotation
          End Site
          {
            OFFSET -1.1221 -3.69964 12.103
          }
        }
      }
    }
  }
  JOINT lButtock
  {
    OFFSET 8.77824 4.35084 1.2192
    CHANNELS 3 Zrotation Xrotation Yrotation
    JOINT lThigh
    {
      OFFSET 0 -1.70687 -2.19456
      CHANNELS 3 Zrotation Xrotation Yrotation
      JOINT lShin
      {
        OFFSET 0 -36.8199 0.73152
        CHANNELS 3 Zrotation Xrotation Yrotation
        JOINT lFoot
        {
          OFFSET -0.73152 -45.1104 -5.12064
          CHANNELS 3 Zrotation Xrotation Yrotation
          End Site
          {
            OFFSET 1.1221 -3.69964 12.103
          }
        }
      }
    }
  }
}
MOTION
Frames:	9
Frame Time:	0.00833333
87.1371 67.3113 1.38413 -0.0 -0.0 -0.0 -0.0 -4.771896 -180.0 0.0 -4.771896 -180.0 11.483215 6.478691 81.370012 -8.135423 10.383433 -81.281682 0.0 -0.0 -0.0 0.0 -0.0 -0.0 -155.417258 -2.951435 161.718542 98.127956 -75.993146 75.587594 170.983679 -64.002105 167.981254 -8.579994 26.114551 1.081069 -7.758532 7.439094 1.682075 -84.190082 18.534278 78.357654 -155.193415 -24.299992 122.142835 -21.518077 50.402331 19.926434 7.904304 -24.807577 -3.013399 -9.373581 22.772497 6.455586 -70.379629 -72.130165 -87.279981 11.730934 14.510215 8.092762 -25.537984 -38.087442 -24.598474 1.914582 0.737666 1.710824 155.417258 -2.951435 -161.718542 -12.81679 17.313084 -18.111071 55.880797 -77.655903 86.87334 -137.121136 -61.765422 -118.799732 93.743665 37.963835 -53.548561 -25.540144 -30.560805 -22.986526 -29.398793 -49.64614 4.160016 179.87756 -30.462307 -100.459038 -11.617967 -36.128951 3.244799 -5.119229 -12.697403 -0.772341 72.350995 72.974965 -90.218005 147.916508 -40.674378 163.394575 87.575606 -50.207376 85.929595 -11.105181 26.514456 -7.741188 -0.0 0.0 -0.0 -0.0 -0.0 -0.0 4.304493 0.86717 39.030537 51.782717 -51.214071 -36.46174 -0.0 0.0 -0.0 -0.0 -0.0 -0.0 -4.304493 0.86717 -39.030537 -51.782717 -51.214071 36.46174
87.5463 67.4877 1.19082 -0.0 -0.0 -0.0 -0.0 0.0 -0.0 -0.0 -0.0 0.0 -3.941986 17.932259 -132.771391 10.667824 15.013811 131.983833 -0.0 -0.0 0.0 -0.0 -0.0 0.0 -142.973735 39.431617 147.390037 -151.980852 -2.335175 170.955575 162.966411 -56.098298 129.772095 -179.866587 12.895849 145.218457 -80.965442 38.736427 44.498855 -179.478307 -44.98156 77.430152 -108.427673 34.160977 91.742903 -8.855534 38.065239 -3.965858 -153.32078 13.628946 138.862343 -162.859955 -13.513222 144.92137 0.000474 0.063839 0.020056 1.114539 -45.062322 -5.514325 -124.851156 -29.038378 -122.621388 17.264312 43.635513 8.978648 155.716846 -4.925325 -162.135615 125.749522 53.764515 -142.833519 -136.961761 -72.469083 -102.94432 178.360206 17.503097 -144.981084 7.758532 7.439094 -1.682075 25.018977 19.391752 -25.750397 -0.184726 -0.300416 0.104009 0.597253 0.871627 -0.19192 -78.537123 -80.919176 -49.688177 -2.525678 0.997919 -3.399334 0.014868 -1.323148 0.415899 165.237533 -64.202028 179.249278 -0.0 -0.0 0.0 87.022248 -54.008586 84.069074 -180.0 75.749642 -0.0 -180.0 73.473292 -180.0 -5.202696 -3.77183 -131.645293 24.787413 -41.753217 -54.82589 -180.0 75.749642 -0.0 -180.0 73.473292 -180.0 5.202696 -3.77183 131.645293 -24.787413 -41.753217 54.82589
87.9669 67.6658 0.985619 -0.0 -0.0 -0.0 -0.0 -4.771896 -180.0 -0.0 -4.771896 180.0 -7.906765 12.08614 -91.106352 11.93363 8.136982 91.092829 0.0 -0.0 -0.0 0.0 -0.0 -0.0 -155.417258 -2.951435 161.718542 -0.568189 44.106012 26.965668 -175.478035 56.577444 178.36037 -3.855825 12.276692 -0.007016 4.53085 -4.514112 -0.520964 -136.646561 -37.714117 120.587263 -46.208543 39.652969 36.318179 -0.321539 4.044053 -10.084111 -160.673322 -6.667841 143.245105 -1.828693 21.23857 4.732194 0.000171 0.022623 0.007107 -0.011539 0.135349 0.012768 -139.156685 -4.557856 -136.327693 -147.352862 19.964901 -144.390003 142.973735 39.431617 -147.390037 151.980852 -2.335175 -170.955575 -13.587441 1.62534 1.446022 17.168735 44.784152 -5.478421 2.608268 2.55464 -0.457401 137.0319 -39.9602 -117.267587 27.608968 30.765951 -20.255213 171.975356 -13.326301 -117.297121 151.476684 17.84174 -137.538824 168.410016 -31.204612 -145.366376 145.119721 0.310087 179.225753 -22.331951 31.336762 5.523378 124.851156 -29.038378 122.621388 118.766404 -37.903283 119.92986 -0.0 0.0 -0.0 -0.0 -0.0 -0.0 4.304493 0.86717 39.030537 51.782717 -51.214071 -36.46174 -0.0 0.0 -0.0 -0.0 -0.0 -0.0 -4.304493 0.86717 -39.030537 -51.782717 -51.214071 36.46174
88.4113 67.8463 0.792288 -0.0 0.0 -0.0 -0.0 -4.771896 -180.0 -0.0 -4.771896 -180.0 -8.144544 9.765136 -77.762661 11.253376 5.904095 77.877376 0.0 -0.0 -0.0 0.0 -0.0 -0.0 -85.537448 68.182427 88.688908 5.843373 75.512119 13.59165 179.753761 9.319171 179.386027 -7.738377 23.810817 0.805095 -174.193348 -11.857374 89.870273 -159.254191 0.635848 84.572296 -148.886119 -12.609784 120.244776 -143.523759 1.749016 120.408433 -161.153703 -8.160616 143.465095 -40.12699 58.568035 37.403876 0.000171 0.022623 0.007107 -16.321452 61.913259 18.667468 6.227694 18.789635 5.573717 -152.299656 18.605422 -144.262455 155.460052 -3.227798 -161.777534 -23.198038 -15.362493 -15.83025 179.568213 2.637315 -178.974783 6.888842 21.406393 -0.56106 89.136032 38.427358 -50.299234 -32.873483 -33.007267 -22.189323 108.427673 34.160977 -91.742903 14.964624 44.820372 -1.046048 -9.417448 -29.555259 3.210086 166.211044 -4.765348 -141.686126 72.133176 72.974596 -89.989695 167.877169 46.122036 176.146264 -32.646368 83.587662 -5.695192 128.479092 -27.059556 124.143704 -0.0 0.0 -0.0 -0.0 -2.27635 -180.0 -6.880793 -5.921355 -107.859822 -50.840066 59.819282 -21.947526 -0.0 0.0 -0.0 -0.0 -2.27635 -180.0 6.880793 -5.921355 107.859822 50.840066 59.819282 21.947526
88.8955 68.1527 0.574485 -0.0 0.0 -0.0 -0.0 -4.771896 -180.0 0.0 -4.771896 -180.0 11.359575 6.157081 79.425429 -8.145262 10.039281 -79.321748 0.0 -0.0 -0.0 0.0 -0.0 -0.0 -142.973735 39.431617 147.390037 -151.976127 -2.301811 170.953719 4.911952 29.896889 0.001967 -5.417411 17.071882 0.224602 -78.030619 38.689342 42.41267 34.338005 -32.004471 19.407583 -164.554509 -40.547813 122.456623 -79.234405 52.506406 72.322641 -4.104459 11.11647 2.538106 -85.171547 64.988219 74.087727 -0.021306 -1.72602 -0.542654 -71.684797 -87.200168 -83.05539 -126.797849 -26.619602 -124.512652 3.728808 -3.355256 -0.957371 142.973735 39.431617 -147.390037 151.976127 -2.301811 -170.953719 4.390681 49.61914 -5.356538 -0.91575 -2.913612 -0.123081 -4.654743 -4.638298 0.530228 10.599215 10.998605 -6.201331 27.171624 30.468838 -19.890394 69.82645 54.666296 -43.013576 -23.903801 -61.333833 -1.399383 14.862115 32.597288 -12.430163 71.925376 72.974006 -89.771887 -13.294391 44.554505 12.048242 -6.227694 18.789635 -5.573717 75.905862 -54.065371 72.920584 -0.0 0.0 -0.0 -0.0 -2.27635 -180.0 -6.880793 -5.921355 -107.859822 -50.840066 59.819282 -21.947526 -0.0 0.0 -0.0 -0.0 -2.27635 -180.0 6.880793 -5.921355 107.859822 50.840066 59.819282 21.947526
89.3024 68.1879 0.43555800000000006 -0.0 -0.0 -0.0 -0.0 -4.771896 -180.0 -0.0 -4.771896 -180.0 11.359575 6.157081 79.425429 -8.145262 10.039281 -79.321748 0.0 -0.0 -0.0 0.0 -0.0 -0.0 -142.973735 39.431617 147.390037 18.642852 17.001183 8.652215 -179.998446 -8.92907 178.292166 -7.104194 22.023117 0.619557 -38.895831 29.386874 16.068743 94.613305 -63.511387 26.097672 -140.164771 2.326489 115.87806 -5.787535 42.047418 1.290754 -160.09819 -4.901163 142.968881 -159.937139 -4.458192 143.106699 -74.840941 72.961123 92.827929 10.827938 29.514625 -12.424321 -124.851156 -29.038378 -122.621388 -152.13734 38.48152 -148.869412 142.973735 39.431617 -147.390037 -18.642852 17.001183 -8.652215 178.002924 -15.834628 -178.48618 4.79734 15.188772 -0.116835 -4.53085 -4.514112 0.520964 -15.493 -28.337043 15.305663 77.667448 43.02965 -64.538509 -137.262399 -72.187331 -86.717426 82.840589 61.110826 -74.532293 159.266236 8.488227 -144.39338 0.022715 -1.80743 0.568277 163.340786 20.564921 -168.421751 3.81094 -9.064537 3.561113 147.947263 6.44599 142.78704 -0.0 0.0 -0.0 -0.0 -0.0 -0.0 4.304493 0.86717 39.030537 51.782717 -51.214071 -36.46174 -0.0 0.0 -0.0 -0.0 -0.0 -0.0 -4.304493 0.86717 -39.030537 -51.782717 -51.214071 36.46174
89.7544 68.3937 0.24010200000000004 -0.0 -0.0 -0.0 -0.0 0.0 -0.0 0.0 0.0 0.0 -7.906765 12.08614 -91.106352 11.93363 8.136982 91.092829 0.0 0.0 0.0 0.0 0.0 0.0 -80.1661 68.371792 83.260848 -70.364354 86.569962 89.873968 -172.239584 -5.651325 178.131717 0.948653 -3.017772 0.128351 169.031334 -27.077921 86.617906 -174.346304 -11.842177 102.664247 10.211155 -18.05077 -4.56389 -177.926476 -21.910243 105.474918 -89.835461 60.702148 81.262754 -156.443048 16.485127 142.760071 -72.757246 -72.143382 -89.772159 12.7907 10.272692 7.292861 -39.268359 -45.999586 -38.11781 -85.587767 -55.510124 -84.895513 142.973735 39.431617 -147.390037 133.899218 59.354097 -156.553002 -125.77109 -87.874421 -87.703287 -169.693933 -19.193909 -143.486379 -81.971691 -50.091534 -32.722881 75.905053 37.789473 -38.499855 19.170572 24.114561 -13.380841 166.204773 -1.628751 -114.653678 125.644075 49.839986 -115.274123 4.605921 26.92542 -3.308533 145.121954 1.975391 179.748922 -22.156106 25.901159 6.463047 162.366757 72.063987 150.899593 148.673074 14.704957 140.714764 -0.0 0.0 -0.0 -0.0 -0.0 -0.0 -2.721753 1.041334 -25.607042 98.752495 0.599504 -14.705534 -0.0 0.0 -0.0 -0.0 -0.0 -0.0 2.721753 1.041334 25.607042 -98.752495 0.599504 14.705534
90.1972 68.6013 0.0487517 -0.0 -0.0 -0.0 -0.0 0.0 -0.0 0.0 0.0 -0.0 -8.133567 10.422116 -81.502261 11.496437 6.51512 81.58876 0.0 0.0 0.0 0.0 0.0 0.0 -80.1661 68.371792 83.260848 -155.929037 14.033718 178.186086 132.925646 89.375416 -129.603945 -5.134643 16.216892 0.172906 1.842452 -1.827119 -0.254339 -67.308806 28.900713 60.803433 -72.555137 43.282432 59.932742 -0.806657 12.450064 -11.303692 23.903801 -61.333833 1.399383 -165.387389 -5.978882 140.53412 0.004873 1.771387 0.556475 -3.34078 29.380309 4.294391 -124.851156 -29.038378 -122.621388 4.784281 -0.351822 0.130118 80.1661 68.371792 -83.260848 72.229525 86.566453 -91.742579 62.243933 -75.456927 88.527754 -98.114212 -70.473273 -82.232586 6.581133 6.344846 -1.36571 19.894976 17.100297 -20.751205 113.890355 30.848492 -96.363383 -177.129177 -59.450072 -116.479106 0.571049 1.648356 -0.322148 166.583323 -5.047817 -143.448994 0.008717 -0.871886 0.273999 166.667973 -19.462365 -173.895669 -0.465225 1.226425 -0.428913 0.861621 -2.266526 0.771246 -0.0 0.0 -0.0 -0.0 -0.0 -0.0 4.304493 0.86717 39.030537 51.782717 -51.214071 -36.46174 -0.0 0.0 -0.0 -0.0 -0.0 -0.0 -4.304493 0.86717 -39.030537 -51.782717 -51.214071 36.46174
90.6703 68.8205 -0.131788 -0.0 -0.0 -0.0 -0.0 0.0 -0.0 0.0 0.0 0.0 -7.906765 12.08614 -91.106352 11.93363 8.136982 91.092829 0.0 0.0 0.0 0.0 0.0 0.0 -80.1661 68.371792 83.260848 -72.229525 86.566453 91.742579 13.314597 11.19098 -33.699274 179.449863 10.756193 145.285326 -7.758532 7.439094 1.682075 -122.067931 -17.232831 107.810028 -134.540339 10.541258 112.294897 -10.065087 45.49331 2.913731 0.541241 -1.589941 -0.294737 -166.072663 -3.430927 143.087316 -74.037364 72.969224 91.985606 21.858468 70.481078 -16.038492 -26.564207 -38.860901 -25.60587 -146.845397 7.42977 -144.125532 142.973735 39.431617 -147.390037 133.899218 59.354097 -156.553002 -125.77109 -87.874421 -87.703287 -169.693933 -19.193909 -143.486379 -81.971691 -50.091534 -32.722881 75.905053 37.789473 -38.499855 19.170572 24.114561 -13.380841 162.678902 4.440197 -113.741983 125.644075 49.839986 -115.274123 4.605921 26.92542 -3.308533 145.121957 1.974539 179.748654 -20.346167 -0.617988 9.450824 162.366757 72.063987 150.899593 148.673074 14.704957 140.714764 -0.0 0.0 -0.0 -0.0 -0.0 -0.0 4.304493 0.86717 39.030537 51.782717 -51.214071 -36.46174 -0.0 0.0 -0.0 -0.0 -0.0 -0.0 -4.304493 0.86717 -39.030537 -51.782717 -51.214071 36.46174
